<svg width="64" height="64" viewBox="0 0 64 64" fill="none" xmlns="http://www.w3.org/2000/svg">
  <rect width="64" height="64" rx="16" fill="#181828"/>
  <g filter="url(#glow)">
    <ellipse cx="32" cy="32" rx="22" ry="16" fill="#23234f"/>
    <ellipse cx="32" cy="32" rx="22" ry="16" fill="url(#neon)" fill-opacity="0.5"/>
    <path d="M20 32C20 27.5817 25.3726 24 32 24C38.6274 24 44 27.5817 44 32C44 36.4183 38.6274 40 32 40C30.0122 40 28.1407 39.6712 26.5 39.0996L20 40L21.9004 35.5C20.6712 34.1407 20 32.6122 20 32Z" fill="#00f0ff" fill-opacity="0.85"/>
    <ellipse cx="32" cy="32" rx="22" ry="16" stroke="#00f0ff" stroke-width="2"/>
  </g>
  <defs>
    <filter id="glow" x="0" y="0" width="64" height="64" filterUnits="userSpaceOnUse" color-interpolation-filters="sRGB">
      <feGaussianBlur stdDeviation="2.5" result="blur"/>
      <feMerge>
        <feMergeNode in="blur"/>
        <feMergeNode in="SourceGraphic"/>
      </feMerge>
    </filter>
    <linearGradient id="neon" x1="10" y1="32" x2="54" y2="32" gradientUnits="userSpaceOnUse">
      <stop stop-color="#00f0ff"/>
      <stop offset="1" stop-color="#764ba2"/>
    </linearGradient>
  </defs>
</svg>